<svg id="Layer_1" data-name="Layer 1" xmlns="http://www.w3.org/2000/svg" xmlns:xlink="http://www.w3.org/1999/xlink" viewBox="0 0 289.21 569.7">
  <defs>
    <style>
      .cls-1, .cls-12, .cls-14, .cls-21, .cls-4, .cls-5 {
        fill: none;
      }

      .cls-2 {
        clip-path: url(#clip-path);
      }

      .cls-3 {
        clip-path: url(#clip-path-2);
      }

      .cls-4, .cls-5 {
        stroke: #ebebeb;
      }

      .cls-12, .cls-14, .cls-21, .cls-4, .cls-5 {
        stroke-linejoin: round;
      }

      .cls-21, .cls-4 {
        stroke-width: 0.53px;
      }

      .cls-12, .cls-14, .cls-5 {
        stroke-width: 1.07px;
      }

      .cls-6 {
        fill: #b3823e;
      }

      .cls-7 {
        fill: #bebebe;
      }

      .cls-8 {
        fill: #f0e442;
      }

      .cls-9 {
        fill: #56b4e9;
      }

      .cls-10 {
        fill: #e69f00;
      }

      .cls-11 {
        fill: #d55e00;
      }

      .cls-12, .cls-14, .cls-21 {
        stroke: #fff;
      }

      .cls-12 {
        stroke-linecap: round;
      }

      .cls-13 {
        clip-path: url(#clip-path-3);
      }

      .cls-15, .cls-16, .cls-35 {
        isolation: isolate;
        font-family: ArialMT, Arial;
      }

      .cls-15 {
        font-size: 12.78px;
      }

      .cls-15, .cls-16, .cls-24, .cls-34, .cls-35 {
        fill: #fff;
      }

      .cls-16 {
        font-size: 19.17px;
      }

      .cls-17 {
        letter-spacing: -0.02em;
      }

      .cls-18 {
        letter-spacing: -0.06em;
      }

      .cls-19 {
        clip-path: url(#clip-path-4);
      }

      .cls-20 {
        clip-path: url(#clip-path-5);
      }

      .cls-22 {
        fill: #484e4e;
      }

      .cls-23 {
        fill: #0072b2;
      }

      .cls-24 {
        font-size: 10.62px;
        font-family: MyriadPro-Regular, Myriad Pro;
      }

      .cls-25 {
        letter-spacing: 0em;
      }

      .cls-26 {
        letter-spacing: -0.01em;
      }

      .cls-27 {
        letter-spacing: 0em;
      }

      .cls-28 {
        letter-spacing: -0.01em;
      }

      .cls-29 {
        letter-spacing: 0em;
      }

      .cls-30 {
        letter-spacing: 0em;
      }

      .cls-31 {
        letter-spacing: 0.01em;
      }

      .cls-32 {
        letter-spacing: -0.01em;
      }

      .cls-33 {
        letter-spacing: 0em;
      }

      .cls-35 {
        font-size: 8.8px;
      }

      .cls-36 {
        letter-spacing: 0em;
      }

      .cls-37 {
        letter-spacing: 0.01em;
      }
    </style>
    <clipPath id="clip-path" transform="translate(-54 -3.04)">
      <polygon class="cls-1" points="54 30.96 303.48 35.96 303.48 572.74 56.66 572.74 54 30.96"/>
    </clipPath>
    <clipPath id="clip-path-2" transform="translate(-54 -3.04)">
      <polygon class="cls-1" points="61.75 36.8 298.31 40.8 298.31 527.83 64.41 527.83 61.75 36.8"/>
    </clipPath>
    <clipPath id="clip-path-3" transform="translate(-54 -3.04)">
      <polygon class="cls-1" points="54 29.96 328.16 33.96 328.16 570.74 56.66 570.74 54 29.96"/>
    </clipPath>
    <clipPath id="clip-path-4" transform="translate(-54 -3.04)">
      <rect class="cls-1" x="303.48" y="34.96" width="24.68" height="536.78"/>
    </clipPath>
    <clipPath id="clip-path-5" transform="translate(-54 -3.04)">
      <rect class="cls-1" x="311.23" y="40.8" width="11.77" height="487.03"/>
    </clipPath>
  </defs>
  <polygon class="cls-1" points="0 27.92 274.16 31.92 274.16 568.7 2.65 568.7 0 27.92"/>
  <g class="cls-2">
    <polygon class="cls-1" points="0 27.92 249.48 32.92 249.48 569.7 2.65 569.7 0 27.92"/>
  </g>
  <g class="cls-3">
    <g>
      <polygon class="cls-1" points="7.75 33.76 241.66 33.76 244.31 524.79 10.4 524.79 7.75 33.76"/>
      <line class="cls-4" x1="47.61" y1="524.78" x2="47.61" y2="37.76"/>
      <line class="cls-4" x1="100.77" y1="524.78" x2="100.77" y2="37.76"/>
      <line class="cls-4" x1="153.93" y1="524.78" x2="153.93" y2="37.76"/>
      <line class="cls-4" x1="207.1" y1="524.78" x2="207.1" y2="37.76"/>
      <line class="cls-5" x1="10.4" y1="515.98" x2="244.31" y2="515.98"/>
      <line class="cls-5" x1="10.4" y1="501.31" x2="244.31" y2="501.31"/>
      <line class="cls-5" x1="10.4" y1="486.64" x2="244.31" y2="486.64"/>
      <line class="cls-5" x1="10.4" y1="471.97" x2="244.31" y2="471.97"/>
      <line class="cls-5" x1="10.4" y1="457.31" x2="244.31" y2="457.31"/>
      <line class="cls-5" x1="10.4" y1="442.63" x2="244.31" y2="442.63"/>
      <line class="cls-5" x1="10.4" y1="427.96" x2="244.31" y2="427.96"/>
      <line class="cls-5" x1="10.4" y1="413.29" x2="244.31" y2="413.29"/>
      <line class="cls-5" x1="10.4" y1="398.62" x2="244.31" y2="398.62"/>
      <line class="cls-5" x1="10.4" y1="383.96" x2="244.31" y2="383.96"/>
      <line class="cls-5" x1="10.4" y1="369.28" x2="244.31" y2="369.28"/>
      <line class="cls-5" x1="10.4" y1="354.62" x2="244.31" y2="354.62"/>
      <line class="cls-5" x1="10.4" y1="339.95" x2="244.31" y2="339.95"/>
      <line class="cls-5" x1="10.4" y1="325.27" x2="244.31" y2="325.27"/>
      <line class="cls-5" x1="10.4" y1="310.61" x2="244.31" y2="310.61"/>
      <line class="cls-5" x1="10.4" y1="295.94" x2="244.31" y2="295.94"/>
      <line class="cls-5" x1="10.4" y1="281.27" x2="244.31" y2="281.27"/>
      <line class="cls-5" x1="10.4" y1="266.6" x2="244.31" y2="266.6"/>
      <line class="cls-5" x1="10.4" y1="251.92" x2="244.31" y2="251.92"/>
      <line class="cls-5" x1="10.4" y1="237.26" x2="244.31" y2="237.26"/>
      <line class="cls-5" x1="10.4" y1="222.59" x2="244.31" y2="222.59"/>
      <line class="cls-5" x1="10.4" y1="207.92" x2="244.31" y2="207.92"/>
      <line class="cls-5" x1="10.4" y1="193.25" x2="244.31" y2="193.25"/>
      <line class="cls-5" x1="10.4" y1="178.59" x2="244.31" y2="178.59"/>
      <line class="cls-5" x1="10.4" y1="163.91" x2="244.31" y2="163.91"/>
      <line class="cls-5" x1="10.4" y1="149.24" x2="244.31" y2="149.24"/>
      <line class="cls-5" x1="10.4" y1="134.58" x2="244.31" y2="134.58"/>
      <line class="cls-5" x1="10.4" y1="119.9" x2="244.31" y2="119.9"/>
      <line class="cls-5" x1="10.4" y1="105.24" x2="244.31" y2="105.24"/>
      <line class="cls-5" x1="10.4" y1="90.56" x2="244.31" y2="90.56"/>
      <line class="cls-5" x1="10.4" y1="75.9" x2="244.31" y2="75.9"/>
      <line class="cls-5" x1="10.4" y1="61.23" x2="244.31" y2="61.23"/>
      <line class="cls-5" x1="10.4" y1="46.55" x2="244.31" y2="46.55"/>
      <rect class="cls-6" x="221.57" y="510.11" width="12.1" height="11.74"/>
      <rect class="cls-6" x="217.63" y="495.44" width="16.05" height="11.74"/>
      <rect class="cls-6" x="223.47" y="480.77" width="10.21" height="11.74"/>
      <rect class="cls-6" x="221.98" y="466.1" width="11.7" height="11.74"/>
      <rect class="cls-6" x="217.62" y="451.44" width="16.06" height="11.74"/>
      <rect class="cls-6" x="219.25" y="436.76" width="14.43" height="11.74"/>
      <rect class="cls-7" x="204.31" y="510.11" width="17.26" height="11.74"/>
      <rect class="cls-7" x="203.3" y="495.44" width="14.34" height="11.74"/>
      <rect class="cls-7" x="207.77" y="480.77" width="15.7" height="11.74"/>
      <rect class="cls-7" x="204.68" y="466.1" width="17.29" height="11.74"/>
      <rect class="cls-7" x="200.99" y="451.44" width="16.63" height="11.74"/>
      <rect class="cls-7" x="210.17" y="436.76" width="9.09" height="11.74"/>
      <rect class="cls-8" x="146.77" y="510.11" width="57.54" height="11.74"/>
      <rect class="cls-8" x="149.28" y="495.44" width="54.03" height="11.74"/>
      <rect class="cls-8" x="153.54" y="480.77" width="54.23" height="11.74"/>
      <rect class="cls-8" x="152.79" y="466.1" width="51.9" height="11.74"/>
      <rect class="cls-8" x="160.46" y="451.44" width="40.53" height="11.74"/>
      <rect class="cls-8" x="154.66" y="436.76" width="55.51" height="11.74"/>
      <rect class="cls-9" x="137.97" y="510.11" width="8.79" height="11.74"/>
      <rect class="cls-9" x="142.07" y="495.44" width="7.21" height="11.74"/>
      <rect class="cls-9" x="146.67" y="480.77" width="6.87" height="11.74"/>
      <rect class="cls-9" x="145.86" y="466.1" width="6.93" height="11.74"/>
      <rect class="cls-9" x="151.7" y="451.44" width="8.76" height="11.74"/>
      <rect class="cls-9" x="145.13" y="436.76" width="9.53" height="11.74"/>
      <rect class="cls-10" x="127.43" y="510.11" width="10.55" height="11.74"/>
      <rect class="cls-10" x="129.24" y="495.44" width="12.82" height="11.74"/>
      <rect class="cls-10" x="136.87" y="480.77" width="9.79" height="11.74"/>
      <rect class="cls-10" x="137.74" y="466.1" width="8.12" height="11.74"/>
      <rect class="cls-10" x="139.66" y="451.44" width="12.04" height="11.74"/>
      <rect class="cls-10" x="134.17" y="436.76" width="10.95" height="11.74"/>
      <rect class="cls-11" x="21.04" y="510.11" width="106.4" height="11.74"/>
      <rect class="cls-11" x="21.04" y="495.44" width="108.21" height="11.74"/>
      <rect class="cls-11" x="21.04" y="480.77" width="115.84" height="11.74"/>
      <rect class="cls-11" x="21.04" y="466.1" width="116.7" height="11.74"/>
      <rect class="cls-11" x="21.04" y="451.44" width="118.62" height="11.74"/>
      <rect class="cls-11" x="21.04" y="436.76" width="113.15" height="11.74"/>
      <rect class="cls-6" x="219.68" y="422.1" width="14" height="11.74"/>
      <rect class="cls-6" x="220.57" y="407.43" width="13.12" height="11.74"/>
      <rect class="cls-6" x="219.66" y="392.75" width="14.02" height="11.74"/>
      <rect class="cls-6" x="219.58" y="378.09" width="14.1" height="11.74"/>
      <rect class="cls-6" x="220.99" y="363.41" width="12.69" height="11.74"/>
      <rect class="cls-6" x="222.13" y="348.75" width="11.56" height="11.74"/>
      <rect class="cls-7" x="203.98" y="422.1" width="15.69" height="11.74"/>
      <rect class="cls-7" x="201.34" y="407.43" width="19.22" height="11.74"/>
      <rect class="cls-7" x="202.34" y="392.75" width="17.32" height="11.74"/>
      <rect class="cls-7" x="203.64" y="378.09" width="15.92" height="11.74"/>
      <rect class="cls-7" x="198.94" y="363.41" width="22.05" height="11.74"/>
      <rect class="cls-7" x="199.9" y="348.75" width="22.22" height="11.74"/>
      <rect class="cls-8" x="100.92" y="422.1" width="103.08" height="11.74"/>
      <rect class="cls-8" x="101.1" y="407.43" width="100.24" height="11.74"/>
      <rect class="cls-8" x="91.8" y="392.75" width="110.54" height="11.74"/>
      <rect class="cls-8" x="92.08" y="378.09" width="111.57" height="11.74"/>
      <rect class="cls-8" x="113.27" y="363.41" width="85.67" height="11.74"/>
      <rect class="cls-8" x="107.68" y="348.75" width="92.22" height="11.74"/>
      <rect class="cls-9" x="85.61" y="422.1" width="15.31" height="11.74"/>
      <rect class="cls-9" x="89.88" y="407.43" width="11.23" height="11.74"/>
      <rect class="cls-9" x="81.74" y="392.75" width="10.06" height="11.74"/>
      <rect class="cls-9" x="81.24" y="378.09" width="10.84" height="11.74"/>
      <rect class="cls-9" x="103.4" y="363.41" width="9.87" height="11.74"/>
      <rect class="cls-9" x="96.54" y="348.75" width="11.14" height="11.74"/>
      <rect class="cls-10" x="73.44" y="422.1" width="12.17" height="11.74"/>
      <rect class="cls-10" x="79.22" y="407.43" width="10.65" height="11.74"/>
      <rect class="cls-10" x="73.23" y="392.75" width="8.51" height="11.74"/>
      <rect class="cls-10" x="74.17" y="378.09" width="7.07" height="11.74"/>
      <rect class="cls-10" x="92.89" y="363.41" width="10.51" height="11.74"/>
      <rect class="cls-10" x="83.39" y="348.75" width="13.15" height="11.74"/>
      <rect class="cls-11" x="21.04" y="422.1" width="52.41" height="11.74"/>
      <rect class="cls-11" x="21.04" y="407.43" width="58.18" height="11.74"/>
      <rect class="cls-11" x="21.04" y="392.75" width="52.19" height="11.74"/>
      <rect class="cls-11" x="21.04" y="378.09" width="53.13" height="11.74"/>
      <rect class="cls-11" x="21.04" y="363.41" width="71.85" height="11.74"/>
      <rect class="cls-11" x="21.04" y="348.75" width="62.35" height="11.74"/>
      <rect class="cls-6" x="218.74" y="334.08" width="14.94" height="11.74"/>
      <rect class="cls-6" x="222.45" y="319.41" width="11.23" height="11.74"/>
      <rect class="cls-6" x="225.32" y="304.74" width="8.36" height="11.74"/>
      <rect class="cls-6" x="226.52" y="290.07" width="7.16" height="11.74"/>
      <rect class="cls-6" x="226.51" y="275.4" width="7.17" height="11.74"/>
      <rect class="cls-7" x="212.38" y="334.08" width="6.35" height="11.74"/>
      <rect class="cls-7" x="220.36" y="319.41" width="2.09" height="11.74"/>
      <rect class="cls-7" x="225.32" y="304.74" height="11.74"/>
      <rect class="cls-7" x="226.52" y="290.07" height="11.74"/>
      <rect class="cls-7" x="226.51" y="275.4" height="11.74"/>
      <rect class="cls-8" x="210.14" y="334.08" width="2.24" height="11.74"/>
      <rect class="cls-8" x="216.06" y="319.41" width="4.3" height="11.74"/>
      <rect class="cls-8" x="221.37" y="304.74" width="3.96" height="11.74"/>
      <rect class="cls-8" x="223.14" y="290.07" width="3.39" height="11.74"/>
      <rect class="cls-8" x="222.85" y="275.4" width="3.66" height="11.74"/>
      <rect class="cls-9" x="169.89" y="334.08" width="40.25" height="11.74"/>
      <rect class="cls-9" x="172.46" y="319.41" width="43.59" height="11.74"/>
      <rect class="cls-9" x="175.95" y="304.74" width="45.42" height="11.74"/>
      <rect class="cls-9" x="184.06" y="290.07" width="39.07" height="11.74"/>
      <rect class="cls-9" x="176.5" y="275.4" width="46.34" height="11.74"/>
      <rect class="cls-10" x="53.08" y="334.08" width="116.8" height="11.74"/>
      <rect class="cls-10" x="45.12" y="319.41" width="127.34" height="11.74"/>
      <rect class="cls-10" x="44.66" y="304.74" width="131.28" height="11.74"/>
      <rect class="cls-10" x="45.05" y="290.07" width="139.01" height="11.74"/>
      <rect class="cls-10" x="43.1" y="275.4" width="133.4" height="11.74"/>
      <rect class="cls-11" x="21.04" y="334.08" width="32.04" height="11.74"/>
      <rect class="cls-11" x="21.04" y="319.41" width="24.08" height="11.74"/>
      <rect class="cls-11" x="21.04" y="304.74" width="23.62" height="11.74"/>
      <rect class="cls-11" x="21.04" y="290.07" width="24.02" height="11.74"/>
      <rect class="cls-11" x="21.04" y="275.4" width="22.07" height="11.74"/>
      <rect class="cls-6" x="230.83" y="260.73" width="2.85" height="11.74"/>
      <rect class="cls-6" x="233.43" y="246.07" width="0.25" height="11.74"/>
      <rect class="cls-6" x="233.68" y="231.39" height="11.74"/>
      <rect class="cls-6" x="232.47" y="216.73" width="1.21" height="11.74"/>
      <rect class="cls-6" x="230.72" y="202.05" width="2.96" height="11.74"/>
      <rect class="cls-6" x="233.48" y="187.38" width="0.2" height="11.74"/>
      <rect class="cls-7" x="230.83" y="260.73" height="11.74"/>
      <rect class="cls-7" x="233.43" y="246.07" height="11.74"/>
      <rect class="cls-7" x="233.68" y="231.39" height="11.74"/>
      <rect class="cls-7" x="232.47" y="216.73" height="11.74"/>
      <rect class="cls-7" x="230.72" y="202.05" height="11.74"/>
      <rect class="cls-7" x="233.48" y="187.38" height="11.74"/>
      <rect class="cls-8" x="213.65" y="260.73" width="17.19" height="11.74"/>
      <rect class="cls-8" x="216.9" y="246.07" width="16.54" height="11.74"/>
      <rect class="cls-8" x="215.19" y="231.39" width="18.49" height="11.74"/>
      <rect class="cls-8" x="212.27" y="216.73" width="20.19" height="11.74"/>
      <rect class="cls-8" x="210.77" y="202.05" width="19.95" height="11.74"/>
      <rect class="cls-8" x="215.91" y="187.38" width="17.57" height="11.74"/>
      <rect class="cls-9" x="112.72" y="260.73" width="100.92" height="11.74"/>
      <rect class="cls-9" x="109.03" y="246.07" width="107.87" height="11.74"/>
      <rect class="cls-9" x="107.14" y="231.39" width="108.06" height="11.74"/>
      <rect class="cls-9" x="110.28" y="216.73" width="101.99" height="11.74"/>
      <rect class="cls-9" x="112.04" y="202.05" width="98.72" height="11.74"/>
      <rect class="cls-9" x="109.73" y="187.38" width="106.18" height="11.74"/>
      <rect class="cls-10" x="51.27" y="260.73" width="61.46" height="11.74"/>
      <rect class="cls-10" x="49.09" y="246.07" width="59.93" height="11.74"/>
      <rect class="cls-10" x="43.59" y="231.39" width="63.55" height="11.74"/>
      <rect class="cls-10" x="44.73" y="216.73" width="65.56" height="11.74"/>
      <rect class="cls-10" x="50.08" y="202.05" width="61.96" height="11.74"/>
      <rect class="cls-10" x="45.46" y="187.38" width="64.27" height="11.74"/>
      <rect class="cls-11" x="21.04" y="260.73" width="30.23" height="11.74"/>
      <rect class="cls-11" x="21.04" y="246.07" width="28.06" height="11.74"/>
      <rect class="cls-11" x="21.04" y="231.39" width="22.55" height="11.74"/>
      <rect class="cls-11" x="21.04" y="216.73" width="23.69" height="11.74"/>
      <rect class="cls-11" x="21.04" y="202.05" width="29.05" height="11.74"/>
      <rect class="cls-11" x="21.04" y="187.38" width="24.43" height="11.74"/>
      <rect class="cls-6" x="226.68" y="172.72" width="7" height="11.74"/>
      <rect class="cls-6" x="233.68" y="158.04" height="11.74"/>
      <rect class="cls-6" x="231.14" y="143.38" width="2.54" height="11.74"/>
      <rect class="cls-6" x="229.58" y="128.71" width="4.1" height="11.74"/>
      <rect class="cls-6" x="230.65" y="114.04" width="3.03" height="11.74"/>
      <rect class="cls-6" x="229.98" y="99.37" width="3.7" height="11.74"/>
      <rect class="cls-7" x="226.68" y="172.72" height="11.74"/>
      <rect class="cls-7" x="233.68" y="158.04" height="11.74"/>
      <rect class="cls-7" x="231.14" y="143.38" height="11.74"/>
      <rect class="cls-7" x="229.58" y="128.71" height="11.74"/>
      <rect class="cls-7" x="230.65" y="114.04" height="11.74"/>
      <rect class="cls-7" x="229.98" y="99.37" height="11.74"/>
      <rect class="cls-8" x="212.08" y="172.72" width="14.6" height="11.74"/>
      <rect class="cls-8" x="218.27" y="158.04" width="15.41" height="11.74"/>
      <rect class="cls-8" x="215.34" y="143.38" width="15.8" height="11.74"/>
      <rect class="cls-8" x="217.55" y="128.71" width="12.03" height="11.74"/>
      <rect class="cls-8" x="214.93" y="114.04" width="15.72" height="11.74"/>
      <rect class="cls-8" x="216.31" y="99.37" width="13.68" height="11.74"/>
      <rect class="cls-9" x="125.32" y="172.72" width="86.76" height="11.74"/>
      <rect class="cls-9" x="118.73" y="158.04" width="99.53" height="11.74"/>
      <rect class="cls-9" x="122.86" y="143.38" width="92.47" height="11.74"/>
      <rect class="cls-9" x="126.8" y="128.71" width="90.76" height="11.74"/>
      <rect class="cls-9" x="116.67" y="114.04" width="98.26" height="11.74"/>
      <rect class="cls-9" x="127.34" y="99.37" width="88.96" height="11.74"/>
      <rect class="cls-10" x="47.67" y="172.72" width="77.65" height="11.74"/>
      <rect class="cls-10" x="42.28" y="158.04" width="76.45" height="11.74"/>
      <rect class="cls-10" x="46.12" y="143.38" width="76.75" height="11.74"/>
      <rect class="cls-10" x="44.49" y="128.71" width="82.31" height="11.74"/>
      <rect class="cls-10" x="44.83" y="114.04" width="71.84" height="11.74"/>
      <rect class="cls-10" x="47.77" y="99.37" width="79.58" height="11.74"/>
      <rect class="cls-11" x="21.04" y="172.72" width="26.63" height="11.74"/>
      <rect class="cls-11" x="21.04" y="158.04" width="21.25" height="11.74"/>
      <rect class="cls-11" x="21.04" y="143.38" width="25.09" height="11.74"/>
      <rect class="cls-11" x="21.04" y="128.71" width="23.45" height="11.74"/>
      <rect class="cls-11" x="21.04" y="114.04" width="23.79" height="11.74"/>
      <rect class="cls-11" x="21.04" y="99.37" width="26.74" height="11.74"/>
      <rect class="cls-6" x="220.14" y="84.7" width="13.54" height="11.74"/>
      <rect class="cls-6" x="224.54" y="70.03" width="9.14" height="11.74"/>
      <rect class="cls-6" x="227.39" y="55.36" width="6.29" height="11.74"/>
      <rect class="cls-6" x="221.08" y="40.69" width="12.6" height="11.74"/>
      <rect class="cls-7" x="194.31" y="84.7" width="25.83" height="11.74"/>
      <rect class="cls-7" x="199.32" y="70.03" width="25.24" height="11.74"/>
      <rect class="cls-7" x="200.39" y="55.36" width="26.99" height="11.74"/>
      <rect class="cls-7" x="200.47" y="40.69" width="20.61" height="11.74"/>
      <rect class="cls-8" x="124.56" y="84.7" width="69.75" height="11.74"/>
      <rect class="cls-8" x="141.35" y="70.03" width="57.97" height="11.74"/>
      <rect class="cls-8" x="138.73" y="55.36" width="61.66" height="11.74"/>
      <rect class="cls-8" x="135.4" y="40.69" width="65.07" height="11.74"/>
      <rect class="cls-9" x="108.58" y="84.7" width="15.98" height="11.74"/>
      <rect class="cls-9" x="127.43" y="70.03" width="13.91" height="11.74"/>
      <rect class="cls-9" x="125.85" y="55.36" width="12.88" height="11.74"/>
      <rect class="cls-9" x="120.48" y="40.69" width="14.92" height="11.74"/>
      <rect class="cls-10" x="86.07" y="84.7" width="22.5" height="11.74"/>
      <rect class="cls-10" x="110.32" y="70.03" width="17.11" height="11.74"/>
      <rect class="cls-10" x="106.21" y="55.36" width="19.63" height="11.74"/>
      <rect class="cls-10" x="101.01" y="40.69" width="19.47" height="11.74"/>
      <rect class="cls-11" x="21.04" y="84.7" width="65.04" height="11.74"/>
      <rect class="cls-11" x="21.04" y="70.03" width="89.29" height="11.74"/>
      <rect class="cls-11" x="21.04" y="55.36" width="85.18" height="11.74"/>
      <rect class="cls-11" x="21.04" y="40.69" width="79.98" height="11.74"/>
      <rect class="cls-12" x="10.4" y="37.76" width="233.91" height="487.03"/>
      <!-- islets -->
      <rect id='r012' x='21.04' y='40.69' width='212.65' height='11.74' style='stroke-width: 1; stroke: red; stroke-linecap: square; stroke-linejoin: miter; fill: #990F2600;' />
      <rect id='r010' x='21.04' y='55.36' width='212.65' height='11.74' style='stroke-width: 1; stroke: red; stroke-linecap: square; stroke-linejoin: miter; fill: #990F2600;' />
      <rect id='r008' x='21.04' y='70.03' width='212.65' height='11.74' style='stroke-width: 1; stroke: red; stroke-linecap: square; stroke-linejoin: miter; fill: #990F2600;' />
      <rect id='r007' x='21.04' y='84.7' width='212.65' height='11.74' style='stroke-width: 1; stroke: red; stroke-linecap: square; stroke-linejoin: miter; fill: #990F2600;' />
      <!-- Acini + Duct -->
      <rect id='r024' x='21.04' y='99.34' width='212.65' height='11.74' style='stroke-width: 1; stroke: red; stroke-linecap: square; stroke-linejoin: miter; fill: #990F2600;' />
      <rect id='r023' x='21.04' y='114.04' width='212.65' height='11.74' style='stroke-width: 1; stroke: red; stroke-linecap: square; stroke-linejoin: miter; fill: #990F2600;' />
      <rect id='r022' x='21.04' y='128.71' width='212.65' height='11.74' style='stroke-width: 1; stroke: red; stroke-linecap: square; stroke-linejoin: miter; fill: #990F2600;' />
      <rect id='r021' x='21.04' y='143.38' width='212.65' height='11.74' style='stroke-width: 1; stroke: red; stroke-linecap: square; stroke-linejoin: miter; fill: #990F2600;' />
      <rect id='r020' x='21.04' y='158.04' width='212.65' height='11.74' style='stroke-width: 1; stroke: red; stroke-linecap: square; stroke-linejoin: miter; fill: #990F2600;' />
      <rect id='r019' x='21.04' y='172.72' width='212.65' height='11.74' style='stroke-width: 1; stroke: red; stroke-linecap: square; stroke-linejoin: miter; fill: #990F2600;' />
      <!-- Acini -->
      <rect id='r018Acini' x='21.04' y='187.38' width='212.65' height='11.74' style='stroke-width: 1; stroke: red; stroke-linecap: square; stroke-linejoin: miter; fill: #990F2600;' />
      <rect id='r017Acini' x='21.04' y='202.05' width='212.65' height='11.74' style='stroke-width: 1; stroke: red; stroke-linecap: square; stroke-linejoin: miter; fill: #990F2600;' />
      <rect id='r016Acini' x='21.04' y='216.73' width='212.65' height='11.74' style='stroke-width: 1; stroke: red; stroke-linecap: square; stroke-linejoin: miter; fill: #990F2600;' />
      <rect id='r015Acini' x='21.04' y='231.39' width='212.65' height='11.74' style='stroke-width: 1; stroke: red; stroke-linecap: square; stroke-linejoin: miter; fill: #990F2600;' />
      <rect id='r014Acini' x='21.04' y='246.07' width='212.65' height='11.74' style='stroke-width: 1; stroke: red; stroke-linecap: square; stroke-linejoin: miter; fill: #990F2600;' />
      <rect id='r013Acini' x='21.04' y='260.73' width='212.65' height='11.74' style='stroke-width: 1; stroke: red; stroke-linecap: square; stroke-linejoin: miter; fill: #990F2600;' />
      <!-- Duct -->
      <rect id='r018Duct' x='21.04' y='275.4' width='212.65' height='11.74' style='stroke-width: 1; stroke: red; stroke-linecap: square; stroke-linejoin: miter; fill: #990F2600;' />
      <rect id='r016Duct' x='21.04' y='290.07' width='212.65' height='11.74' style='stroke-width: 1; stroke: red; stroke-linecap: square; stroke-linejoin: miter; fill: #990F2600;' />
      <rect id='r015Duct' x='21.04' y='304.74' width='212.65' height='11.74' style='stroke-width: 1; stroke: red; stroke-linecap: square; stroke-linejoin: miter; fill: #990F2600;' />
      <rect id='r014Duct' x='21.04' y='319.41' width='212.65' height='11.74' style='stroke-width: 1; stroke: red; stroke-linecap: square; stroke-linejoin: miter; fill: #990F2600;' />
      <rect id='r013Duct' x='21.04' y='334.08' width='212.65' height='11.74' style='stroke-width: 1; stroke: red; stroke-linecap: square; stroke-linejoin: miter; fill: #990F2600;' />
      <!-- Beta Cells -->
      <rect id='r011Beta' x='21.04' y='348.75' width='212.65' height='11.74' style='stroke-width: 1; stroke: red; stroke-linecap: square; stroke-linejoin: miter; fill: #990F2600;' />
      <rect id='r009Beta' x='21.04' y='363.41' width='212.65' height='11.74' style='stroke-width: 1; stroke: red; stroke-linecap: square; stroke-linejoin: miter; fill: #990F2600;' />
      <rect id='r006Beta' x='21.04' y='378.09' width='212.65' height='11.74' style='stroke-width: 1; stroke: red; stroke-linecap: square; stroke-linejoin: miter; fill: #990F2600;' />
      <rect id='r003Beta' x='21.04' y='392.75' width='212.65' height='11.74' style='stroke-width: 1; stroke: red; stroke-linecap: square; stroke-linejoin: miter; fill: #990F2600;' />
      <rect id='r002Beta' x='21.04' y='407.43' width='212.65' height='11.74' style='stroke-width: 1; stroke: red; stroke-linecap: square; stroke-linejoin: miter; fill: #990F2600;' />
      <rect id='r001Beta' x='21.04' y='422.1' width='212.65' height='11.74' style='stroke-width: 1; stroke: red; stroke-linecap: square; stroke-linejoin: miter; fill: #990F2600;' />
      <!-- Alpha Cells -->
      <rect id='r011Alpha' x='21.04' y='436.76' width='212.65' height='11.74' style='stroke-width: 1; stroke: red; stroke-linecap: square; stroke-linejoin: miter; fill: #990F2600;' />
      <rect id='r009Alpha' x='21.04' y='451.44' width='212.65' height='11.74' style='stroke-width: 1; stroke: red; stroke-linecap: square; stroke-linejoin: miter; fill: #990F2600;' />
      <rect id='r006Alpha' x='21.04' y='466.1' width='212.65' height='11.74' style='stroke-width: 1; stroke: red; stroke-linecap: square; stroke-linejoin: miter; fill: #990F2600;' />
      <rect id='r003Alpha' x='21.04' y='480.77' width='212.65' height='11.74' style='stroke-width: 1; stroke: red; stroke-linecap: square; stroke-linejoin: miter; fill: #990F2600;' />
      <rect id='r002Alpha' x='21.04' y='495.44' width='212.65' height='11.74' style='stroke-width: 1; stroke: red; stroke-linecap: square; stroke-linejoin: miter; fill: #990F2600;' />
      <rect id='r001Alpha' x='21.04' y='510.11' width='212.65' height='11.74' style='stroke-width: 1; stroke: red; stroke-linecap: square; stroke-linejoin: miter; fill: #990F2600;' />


    </g>
  </g>
  <g class="cls-13">
    <g>
      <line class="cls-14" x1="21.04" y1="526.69" x2="21.04" y2="523.78"/>
      <line class="cls-14" x1="74.2" y1="526.69" x2="74.2" y2="523.78"/>
      <line class="cls-14" x1="127.36" y1="526.69" x2="127.36" y2="523.78"/>
      <line class="cls-14" x1="180.52" y1="526.69" x2="180.52" y2="523.78"/>
      <line class="cls-14" x1="233.68" y1="526.69" x2="233.68" y2="523.78"/>
      <text class="cls-15" transform="translate(21.04 541) scale(0.89 1)">0.00</text>
      <text class="cls-15" transform="translate(74.2 541) scale(0.89 1)">0.25</text>
      <text class="cls-15" transform="translate(127.36 541) scale(0.89 1)">0.50</text>
      <text class="cls-15" transform="translate(180.52 541) scale(0.89 1)">0.75</text>
      <text class="cls-15" transform="translate(233.68 541) scale(0.89 1)">1.00</text>
      <text class="cls-16" transform="translate(41.21 561.86) scale(0.89 1)">Proportion of Cell<tspan class="cls-17" x="148.11" y="0"> </tspan><tspan class="cls-18" x="153.09" y="0">T</tspan><tspan x="163.75" y="0">ype</tspan></text>
    </g>
  </g>
  <g class="cls-19">
    <rect class="cls-1" x="249.48" y="31.92" width="24.68" height="536.78"/>
  </g>
  <g class="cls-20">
    <g>
      <rect class="cls-1" x="257.23" y="37.76" width="11.77" height="487.03"/>
      <path class="cls-21" d="M313.1,40.8" transform="translate(-54 -3.04)"/>
      <path class="cls-21" d="M313.1,527.82" transform="translate(-54 -3.04)"/>
      <path class="cls-21" d="M315.77,40.8" transform="translate(-54 -3.04)"/>
      <path class="cls-21" d="M315.77,527.82" transform="translate(-54 -3.04)"/>
      <path class="cls-21" d="M318.45,40.8" transform="translate(-54 -3.04)"/>
      <path class="cls-21" d="M318.45,527.82" transform="translate(-54 -3.04)"/>
      <path class="cls-21" d="M321.12,40.8" transform="translate(-54 -3.04)"/>
      <path class="cls-21" d="M321.12,527.82" transform="translate(-54 -3.04)"/>
      <line class="cls-14" x1="257.23" y1="515.98" x2="268.99" y2="515.98"/>
      <line class="cls-14" x1="257.23" y1="501.31" x2="268.99" y2="501.31"/>
      <line class="cls-14" x1="257.23" y1="486.64" x2="268.99" y2="486.64"/>
      <line class="cls-14" x1="257.23" y1="471.97" x2="268.99" y2="471.97"/>
      <line class="cls-14" x1="257.23" y1="457.31" x2="268.99" y2="457.31"/>
      <line class="cls-14" x1="257.23" y1="442.63" x2="268.99" y2="442.63"/>
      <line class="cls-14" x1="257.23" y1="427.96" x2="268.99" y2="427.96"/>
      <line class="cls-14" x1="257.23" y1="413.29" x2="268.99" y2="413.29"/>
      <line class="cls-14" x1="257.23" y1="398.62" x2="268.99" y2="398.62"/>
      <line class="cls-14" x1="257.23" y1="383.96" x2="268.99" y2="383.96"/>
      <line class="cls-14" x1="257.23" y1="369.28" x2="268.99" y2="369.28"/>
      <line class="cls-14" x1="257.23" y1="354.62" x2="268.99" y2="354.62"/>
      <line class="cls-14" x1="257.23" y1="339.95" x2="268.99" y2="339.95"/>
      <line class="cls-14" x1="257.23" y1="325.27" x2="268.99" y2="325.27"/>
      <line class="cls-14" x1="257.23" y1="310.61" x2="268.99" y2="310.61"/>
      <line class="cls-14" x1="257.23" y1="295.94" x2="268.99" y2="295.94"/>
      <line class="cls-14" x1="257.23" y1="281.27" x2="268.99" y2="281.27"/>
      <line class="cls-14" x1="257.23" y1="266.6" x2="268.99" y2="266.6"/>
      <line class="cls-14" x1="257.23" y1="251.92" x2="268.99" y2="251.92"/>
      <line class="cls-14" x1="257.23" y1="237.26" x2="268.99" y2="237.26"/>
      <line class="cls-14" x1="257.23" y1="222.59" x2="268.99" y2="222.59"/>
      <line class="cls-14" x1="257.23" y1="207.92" x2="268.99" y2="207.92"/>
      <line class="cls-14" x1="257.23" y1="193.25" x2="268.99" y2="193.25"/>
      <line class="cls-14" x1="257.23" y1="178.59" x2="268.99" y2="178.59"/>
      <line class="cls-14" x1="257.23" y1="163.91" x2="268.99" y2="163.91"/>
      <line class="cls-14" x1="257.23" y1="149.24" x2="268.99" y2="149.24"/>
      <line class="cls-14" x1="257.23" y1="134.58" x2="268.99" y2="134.58"/>
      <line class="cls-14" x1="257.23" y1="119.9" x2="268.99" y2="119.9"/>
      <line class="cls-14" x1="257.23" y1="105.24" x2="268.99" y2="105.24"/>
      <line class="cls-14" x1="257.23" y1="90.56" x2="268.99" y2="90.56"/>
      <line class="cls-14" x1="257.23" y1="75.9" x2="268.99" y2="75.9"/>
      <line class="cls-14" x1="257.23" y1="61.23" x2="268.99" y2="61.23"/>
      <line class="cls-14" x1="257.23" y1="46.55" x2="268.99" y2="46.55"/>
      <rect class="cls-11" x="257.76" y="508.64" width="10.7" height="14.67"/>
      <rect class="cls-11" x="257.76" y="493.97" width="10.7" height="14.67"/>
      <rect class="cls-11" x="257.76" y="479.31" width="10.7" height="14.67"/>
      <rect class="cls-11" x="257.76" y="464.63" width="10.7" height="14.67"/>
      <rect class="cls-11" x="257.76" y="449.97" width="10.7" height="14.67"/>
      <rect class="cls-11" x="257.76" y="435.3" width="10.7" height="14.67"/>
      <rect class="cls-8" x="257.76" y="420.63" width="10.7" height="14.67"/>
      <rect class="cls-8" x="257.76" y="405.96" width="10.7" height="14.67"/>
      <rect class="cls-8" x="257.76" y="391.28" width="10.7" height="14.67"/>
      <rect class="cls-8" x="257.76" y="376.62" width="10.7" height="14.67"/>
      <rect class="cls-8" x="257.76" y="361.95" width="10.7" height="14.67"/>
      <rect class="cls-8" x="257.76" y="347.28" width="10.7" height="14.67"/>
      <rect class="cls-10" x="257.76" y="332.61" width="10.7" height="14.67"/>
      <rect class="cls-10" x="257.76" y="317.95" width="10.7" height="14.67"/>
      <rect class="cls-10" x="257.76" y="303.27" width="10.7" height="14.67"/>
      <rect class="cls-10" x="257.76" y="288.6" width="10.7" height="14.67"/>
      <rect class="cls-10" x="257.76" y="273.94" width="10.7" height="14.67"/>
      <rect class="cls-9" x="257.76" y="259.26" width="10.7" height="14.67"/>
      <rect class="cls-9" x="257.76" y="244.6" width="10.7" height="14.67"/>
      <rect class="cls-9" x="257.76" y="229.92" width="10.7" height="14.67"/>
      <rect class="cls-9" x="257.76" y="215.26" width="10.7" height="14.67"/>
      <rect class="cls-9" x="257.76" y="200.59" width="10.7" height="14.67"/>
      <rect class="cls-9" x="257.76" y="185.91" width="10.7" height="14.67"/>
      <rect class="cls-22" x="257.76" y="171.25" width="10.7" height="14.67"/>
      <rect class="cls-22" x="257.76" y="156.58" width="10.7" height="14.67"/>
      <rect class="cls-22" x="257.76" y="141.91" width="10.7" height="14.67"/>
      <rect class="cls-22" x="257.76" y="127.24" width="10.7" height="14.67"/>
      <rect class="cls-22" x="257.76" y="112.58" width="10.7" height="14.67"/>
      <rect class="cls-22" x="257.76" y="97.9" width="10.7" height="14.67"/>
      <rect class="cls-23" x="257.76" y="83.23" width="10.7" height="14.67"/>
      <rect class="cls-23" x="257.76" y="68.56" width="10.7" height="14.67"/>
      <rect class="cls-23" x="257.76" y="53.89" width="10.7" height="14.67"/>
      <rect class="cls-23" x="257.76" y="39.23" width="10.7" height="14.67"/>
      <rect class="cls-12" x="257.23" y="37.76" width="11.77" height="487.03"/>
      <rect id='islet' x='257.76' y='39.23' width='10.7' height='58.68' style='stroke-width: 1; stroke: red; fill: #990F2600;'/>
      <rect id='aciniDuct' x='257.76' y='97.9' width='10.7' height='88.02' style='stroke-width: 1; stroke: red; fill: #990F2600;'/>
      <rect id='acini' x='257.76' y='185.91' width='10.7' height='88.02' style='stroke-width: 1; stroke: red; fill: #990F2600;'/>
      <rect id='duct' x='257.76' y='273.94' width='10.7' height='73.35' style='stroke-width: 1; stroke: red; fill: #990F2600;'/>
      <rect id='beta' x='257.76' y='347.28' width='10.7' height='88.02' style='stroke-width: 1; stroke: red; fill: #990F2600;'/>
      <rect id='alpha' x='257.76' y='435.3' width='10.7' height='88.02' style='stroke-width: 1; stroke: red; fill: #990F2600;'/>
    </g>
  </g>
  <line class="cls-1" x1="289.21" y1="388.96" x2="289.21" y2="136.96"/>
  <text class="cls-24" transform="translate(274.8 450.57) rotate(90) scale(1.13 1)"><tspan class="cls-25">A</tspan><tspan x="6.47" y="0">lpha </tspan><tspan class="cls-26" x="28.29" y="0">c</tspan><tspan x="32.98" y="0">ells</tspan></text>
  <text class="cls-24" transform="translate(274.5 363) rotate(90) scale(1.13 1)"><tspan class="cls-27">B</tspan><tspan x="5.8" y="0">eta </tspan><tspan class="cls-28" x="22.01" y="0">c</tspan><tspan x="26.7" y="0">ells</tspan></text>
  <text class="cls-24" transform="translate(274.5 298.54) rotate(90) scale(1.13 1)"><tspan class="cls-29">D</tspan><tspan class="cls-30" x="7.11" y="0">u</tspan><tspan class="cls-31" x="12.96" y="0">c</tspan><tspan x="17.85" y="0">t</tspan></text>
  <text class="cls-24" transform="translate(274.5 217.54) rotate(90) scale(1.13 1)"><tspan class="cls-32">A</tspan><tspan x="6.37" y="0">cini</tspan></text>
  <text class="cls-24" transform="translate(273.61 106.85) rotate(90) scale(1.13 1)"><tspan class="cls-32">A</tspan><tspan x="6.37" y="0">cini + </tspan><tspan class="cls-33" x="32.83" y="0">D</tspan><tspan x="39.94" y="0">u</tspan><tspan class="cls-31" x="45.79" y="0">c</tspan><tspan x="50.69" y="0">t</tspan></text>
  <text class="cls-24" transform="translate(273.61 52.85) rotate(90) scale(1.13 1)">Islets</text>
  <rect class="cls-34" x="21.22" width="15.3" height="17.28"/>
  <rect class="cls-11" x="21.84" y="0.71" width="14.04" height="15.86"/>
  <rect class="cls-34" x="21.22" y="16.28" width="15.3" height="17.28"/>
  <rect class="cls-10" x="21.84" y="16.99" width="14.04" height="15.86"/>
  <rect class="cls-34" x="82.29" y="0.56" width="15.3" height="17.28"/>
  <rect class="cls-9" x="82.91" y="1.27" width="14.04" height="15.86"/>
  <rect class="cls-34" x="82.29" y="16.84" width="15.3" height="17.28"/>
  <rect class="cls-8" x="82.91" y="17.55" width="14.04" height="15.86"/>
  <text class="cls-35" transform="translate(41.35 11.79) scale(0.89 1)">Alpha<tspan class="cls-36" x="22.51" y="0"> </tspan><tspan x="24.96" y="0">cell</tspan></text>
  <text class="cls-35" transform="translate(41.37 28.07) scale(0.89 1)">Ductal cell</text>
  <text class="cls-35" transform="translate(102.43 12.35) scale(0.89 1)">Acinar<tspan class="cls-36" x="24.94" y="0"> </tspan><tspan x="27.4" y="0">cell</tspan></text>
  <text class="cls-35" transform="translate(102.44 28.63) scale(0.89 1)">Beta cell</text>
  <text class="cls-35" transform="translate(171.06 28.91) scale(0.89 1)"><tspan class="cls-37">Unknow</tspan><tspan x="32.32" y="0">n</tspan></text>
  <text class="cls-35" transform="translate(171.06 13.19) scale(0.89 1)">Delta cell</text>
  <rect class="cls-34" x="151.71" y="0.9" width="15.3" height="17.28"/>
  <rect class="cls-6" x="152.33" y="1.61" width="14.04" height="15.86"/>
  <rect class="cls-34" x="151.71" y="17.18" width="15.3" height="17.28"/>
  <rect class="cls-7" x="152.33" y="17.89" width="14.04" height="15.86"/>
</svg>
